<svg width="520" height="644" viewBox="0 0 520 644" fill="none" xmlns="http://www.w3.org/2000/svg">
<path d="M261.985 11.3615C165.788 11.3615 87.5195 92.3613 87.5195 191.928V599.558H436.452V191.928C436.452 92.3613 358.182 11.3615 261.985 11.3615Z" fill="#CFC6EB"/>
<path d="M272.755 294.007C272.755 335.863 238.104 369.792 195.362 369.792C152.62 369.792 117.97 335.863 117.97 294.007C117.97 252.16 152.62 218.231 195.362 218.231C238.104 218.231 272.755 252.16 272.755 294.007Z" fill="#262362"/>
<path d="M323.578 348.613C323.578 376.678 300.819 399.437 272.753 399.437C244.679 399.437 221.929 376.678 221.929 348.613C221.929 320.538 244.679 297.788 272.753 297.788C300.819 297.788 323.578 320.538 323.578 348.613Z" fill="#262362"/>
<path d="M258.028 300.784C264.458 297.98 271.472 296.592 278.486 296.592C286.934 296.592 295.391 298.61 302.825 302.601C316.452 309.898 326.434 323.707 329.11 338.923C329.183 339.325 329.557 339.589 329.959 339.516C330.352 339.452 330.617 339.069 330.553 338.676C327.786 322.995 317.548 308.839 303.519 301.313C295.857 297.203 287.172 295.13 278.486 295.121C271.271 295.121 264.065 296.555 257.444 299.45C257.069 299.605 256.905 300.044 257.07 300.409C257.225 300.784 257.654 300.948 258.028 300.784" fill="#262362"/>
<path d="M351.471 441.23C353.946 452.491 355.636 463.953 356.723 475.424C359.435 504.229 358.449 533.235 357.453 562.141C348.284 562.342 246.361 562.963 246.361 562.625C248.507 533.107 248.881 503.462 247.466 473.898C241.127 473.78 234.716 473.643 228.588 471.999C222.46 470.355 216.56 467.03 213.062 461.733C207.838 453.806 208.98 443.431 210.331 434.024C213.491 412.005 216.642 389.976 219.802 367.956C221.099 358.906 220.222 348.175 227.328 341.846C233.885 336.01 241.676 331.571 250.425 330.11C287.441 323.936 319.077 363.198 334.128 392.186C342.156 407.639 347.718 424.206 351.471 441.23" fill="#5B5B94"/>
<path d="M234.192 265.449C234.018 265.248 233.845 265.065 233.662 264.892H233.781C233.9 265.065 234.046 265.248 234.192 265.449Z" fill="#DB681B"/>
<path d="M229.228 294.007L260.764 339.242C260.253 350.22 253.668 361.937 242.991 367.362C240.9 368.431 238.644 369.299 236.297 369.353C230.352 369.509 228.215 363.581 225.466 359.316C222.516 354.75 219.566 350.174 216.616 345.608C213.365 340.557 210.113 335.516 206.853 330.465L229.228 294.007" fill="#FF7144"/>
<path d="M246.046 318.127C243.288 332.319 232.264 346.448 218.812 348.996C221.031 352.439 223.25 355.882 225.469 359.316C228.218 363.581 230.356 369.509 236.301 369.353C238.648 369.299 240.904 368.431 242.995 367.362C253.672 361.937 260.257 350.22 260.768 339.242C260.768 339.242 253.38 328.639 246.046 318.127" fill="#5B5B94"/>
<path d="M217.791 338.63C210.941 346.293 201.753 352.777 192.392 353.965C179.597 355.59 165.532 347.069 159.578 336.037L139.869 299.523C130.206 282.49 136.179 260.845 153.212 251.183L168.628 242.433C184.72 233.291 205.178 238.935 214.32 255.037C219.353 264.352 226.924 274.335 230.093 284.39C234.477 298.263 232.34 315.478 225.353 328.1C223.417 331.598 220.832 335.233 217.791 338.63" fill="#FF7144"/>
<path d="M144.401 305.149L147.406 334.484C147.324 336.52 149.096 338.146 151.114 337.881L164.037 333.662L144.401 305.149Z" fill="#FF7144"/>
<path d="M151.54 301.286C154.736 297.998 159.385 296.181 164.006 296.181C164.591 296.181 165.184 296.217 165.76 296.272C166.362 296.336 166.901 295.898 166.965 295.295C167.029 294.692 166.581 294.153 165.988 294.089C165.321 294.026 164.664 293.989 164.006 293.989C158.828 293.998 153.631 295.998 149.969 299.761C149.548 300.19 149.558 300.884 149.987 301.314C150.425 301.734 151.12 301.725 151.54 301.286Z" fill="#262362"/>
<path d="M156.584 310.072C157.123 311.031 157.881 311.88 158.959 312.364C161.625 313.57 164.767 312.382 165.963 309.716C166.566 308.382 166.566 306.939 166.091 305.67L156.584 310.072" fill="#050708"/>
<path d="M133.187 260.425C146.585 279.385 166.229 293.532 188.011 299.925C209.802 306.318 233.594 304.912 254.435 295.998C253.987 281.906 251.595 267.595 244.973 255.238C238.352 242.881 227.657 232.534 214.67 228.241C200.578 223.583 185.025 226.36 171.618 232.652C158.201 238.954 144.694 250.927 133.187 260.425Z" fill="#262362"/>
<path d="M216.156 303.384C216.548 307.283 213.708 310.763 209.808 311.156C205.908 311.548 202.429 308.708 202.036 304.808C201.644 300.909 204.484 297.429 208.384 297.036C212.274 296.644 215.754 299.484 216.156 303.384Z" fill="#95E7F9"/>
<path d="M166.175 342.795C170.97 342.11 175.454 339.553 178.486 335.781C178.66 335.571 178.623 335.26 178.413 335.087C178.203 334.922 177.893 334.95 177.719 335.16C174.851 338.74 170.577 341.178 166.029 341.817C165.764 341.863 165.581 342.11 165.618 342.375C165.654 342.649 165.901 342.831 166.175 342.795Z" fill="#481D00"/>
<path d="M172.342 344.439C174.168 343.818 175.858 342.804 177.264 341.489C177.465 341.297 177.474 340.987 177.283 340.786C177.1 340.594 176.789 340.585 176.588 340.768C175.282 341.991 173.721 342.932 172.022 343.507C171.766 343.59 171.629 343.873 171.721 344.129C171.803 344.384 172.086 344.521 172.342 344.439" fill="#481D00"/>
<path d="M229.583 277.476C221.619 279.951 213.299 281.148 204.969 281.148C182.347 281.148 159.633 272.326 143.578 256.361L143.057 256.882L142.61 257.457C155.168 267.184 174.612 271.156 192.686 271.166C200.385 271.166 207.828 270.435 214.403 269.111C214.796 269.028 215.052 268.645 214.97 268.252C214.897 267.85 214.504 267.595 214.111 267.677C207.654 268.983 200.293 269.704 192.686 269.704C174.822 269.713 155.624 265.722 143.505 256.306L142.546 257.402C158.912 273.659 181.973 282.609 204.969 282.609C213.436 282.609 221.902 281.395 230.021 278.874C230.404 278.755 230.615 278.344 230.496 277.961C230.377 277.577 229.966 277.358 229.583 277.476" fill="#464379"/>
<path d="M412.622 552.103H111.848V184.056C111.848 178.238 112.213 172.521 112.852 166.877H411.618C412.257 172.521 412.622 178.238 412.622 184.056V552.103ZM262.239 33.6639C327.184 33.6639 382.511 74.835 403.553 132.5H120.926C141.968 74.835 197.286 33.6639 262.239 33.6639V33.6639ZM262.239 0C160.745 0 78.1748 82.5615 78.1748 184.056V599.558H446.295V184.056C446.295 82.5615 363.724 0 262.239 0" fill="white"/>
<path d="M429.717 579.493C438.384 544.642 457.801 514.357 483.071 493.132C483.382 492.867 483.848 492.913 484.113 493.223C484.323 493.479 484.332 493.844 484.158 494.109C465.947 521.261 457.399 553.053 458.632 582.817C458.97 590.946 452.65 597.813 444.521 598.142C436.393 598.48 429.534 592.16 429.196 584.032C429.142 582.625 429.278 581.246 429.598 579.94L429.717 579.493Z" fill="#2F36D4"/>
<path d="M199.278 477.715C197.032 478.702 195.379 480.784 194.557 483.104C193.735 485.415 193.671 487.935 193.972 490.374C194.109 491.488 194.337 492.611 194.867 493.607C195.397 494.593 196.283 495.443 197.369 495.717C199.287 496.191 201.16 494.84 202.447 493.351C205.05 490.337 206.539 486.41 206.667 482.437C206.731 480.474 206.868 478.757 204.95 477.798C203.196 476.93 201.059 476.93 199.278 477.715" fill="#575EFF"/>
<path d="M191.236 495.242C189.427 493.881 187.099 493.415 184.843 493.196C183.135 493.023 181.18 493.068 180.03 494.338C179.171 495.297 179.025 496.758 179.418 497.991C179.811 499.215 180.66 500.247 181.601 501.123C183.226 502.64 185.245 503.818 187.455 504.028C189.528 504.22 192.304 503.315 193.336 501.334C194.423 499.242 192.916 496.511 191.236 495.242" fill="#575EFF"/>
<path d="M208.683 505.251C205.97 505.534 203.23 506.676 201.605 508.868C200.838 509.909 200.344 511.325 200.883 512.503C201.44 513.699 202.82 514.229 204.098 514.53C206.984 515.215 209.998 515.279 212.92 514.859C214.455 514.64 215.998 514.275 217.286 513.416C218.565 512.558 219.542 511.115 219.505 509.571C219.377 504.849 211.761 504.922 208.683 505.251" fill="#575EFF"/>
<path d="M187.973 514.613C187.516 513.425 186.685 512.393 185.772 511.498C182.831 508.64 178.804 506.932 174.712 506.813C172.904 506.768 170.949 507.078 169.634 508.32C168.008 509.882 167.835 512.54 168.748 514.604C169.662 516.668 171.452 518.202 173.342 519.435C175.58 520.896 178.128 522.047 180.804 522.074C184.603 522.12 189.635 518.914 187.973 514.613" fill="#575EFF"/>
<path d="M204.066 529.061C202.833 529.828 201.665 530.769 200.943 532.029C200.222 533.28 200.002 534.897 200.651 536.185C201.455 537.783 203.318 538.523 205.053 538.934C209.318 539.938 213.839 539.783 218.022 538.495C220.268 537.801 222.552 536.669 223.739 534.641C224.634 533.116 224.771 530.413 223.401 529.097C221.976 527.737 219.026 527.134 217.163 526.805C212.743 526.029 207.921 526.686 204.066 529.061Z" fill="#575EFF"/>
<path d="M177.962 529.993C176.392 529.563 174.602 529.454 173.213 530.312C171.679 531.244 170.967 533.18 171.076 534.97C171.186 536.76 171.98 538.441 172.894 539.984C174.309 542.395 176.072 544.66 178.438 546.149C181.452 548.058 186.365 549.007 187.625 544.806C188.858 540.705 186.694 536.139 183.753 533.308C182.127 531.755 180.136 530.577 177.962 529.993" fill="#575EFF"/>
<path d="M188.064 567.474C188.457 566.342 188.365 565.099 188.146 563.93C187.425 560.076 185.251 556.515 182.155 554.113C179.059 551.711 175.077 550.478 171.159 550.733C168.985 550.87 166.72 551.519 165.223 553.108C163.78 554.615 163.223 556.834 163.46 558.907C163.707 560.981 164.675 562.926 165.944 564.579C168.164 567.465 171.333 569.602 174.831 570.579C178.383 571.566 186.493 571.977 188.064 567.474" fill="#575EFF"/>
<path d="M201.942 555.19C200.271 558.104 199.376 562.04 201.513 564.625C203.038 566.47 205.632 567.008 208.025 567.145C214.436 567.511 220.948 565.803 226.355 562.332C228.802 560.752 231.076 558.771 232.428 556.195C233.789 553.62 234.109 550.377 232.748 547.811C230.172 542.952 221.313 543.628 216.747 544.614C210.664 545.939 205.066 549.775 201.942 555.19" fill="#575EFF"/>
<path d="M197.492 601.604C195.136 584.415 193.958 567.072 193.958 549.729C193.958 530.312 195.438 510.886 198.388 491.698C198.452 491.26 198.159 490.858 197.721 490.794C197.292 490.73 196.881 491.022 196.817 491.461C193.849 510.731 192.369 530.23 192.369 549.729C192.369 567.145 193.547 584.562 195.922 601.823C195.977 602.252 196.378 602.563 196.817 602.499C197.246 602.435 197.556 602.042 197.492 601.604" fill="#2F36D4"/>
<path d="M195.11 582.123C191.384 574.835 185.95 568.442 179.356 563.593C179 563.337 178.498 563.41 178.242 563.757C177.986 564.113 178.059 564.615 178.415 564.871C184.808 569.575 190.087 575.785 193.695 582.845C193.896 583.237 194.38 583.393 194.763 583.192C195.156 582.991 195.311 582.516 195.11 582.123" fill="#2F36D4"/>
<path d="M194.897 572.643C198.377 566.168 204.222 560.971 211.062 558.277C211.473 558.113 211.674 557.656 211.51 557.245C211.345 556.834 210.888 556.642 210.477 556.798C203.281 559.638 197.162 565.072 193.5 571.885C193.289 572.278 193.436 572.753 193.819 572.963C194.203 573.173 194.687 573.027 194.897 572.643" fill="#0F6938"/>
<path d="M194.138 560.241C192.604 553.437 188.813 547.181 183.489 542.669C183.151 542.386 182.649 542.432 182.366 542.77C182.083 543.099 182.128 543.601 182.466 543.884C187.516 548.167 191.133 554.131 192.585 560.597C192.677 561.017 193.106 561.291 193.535 561.191C193.964 561.099 194.229 560.67 194.138 560.241" fill="#2F36D4"/>
<path d="M194.457 543.381C197.617 537.911 203.215 533.865 209.398 532.568C209.828 532.486 210.102 532.057 210.01 531.627C209.928 531.198 209.499 530.924 209.069 531.015C202.43 532.413 196.484 536.714 193.078 542.587C192.858 542.961 192.986 543.445 193.37 543.665C193.745 543.893 194.238 543.756 194.457 543.381" fill="#2F36D4"/>
<path d="M194.264 526.175C191.962 521.709 188.108 518.074 183.505 516.028C183.104 515.855 182.638 516.028 182.455 516.43C182.282 516.832 182.464 517.307 182.866 517.48C187.122 519.371 190.72 522.759 192.857 526.905C193.058 527.298 193.533 527.444 193.926 527.243C194.319 527.042 194.465 526.568 194.264 526.175" fill="#2F36D4"/>
<path d="M195.79 515.426C198.74 512.412 202.74 510.421 206.923 509.909C207.361 509.845 207.672 509.453 207.617 509.014C207.562 508.585 207.169 508.275 206.731 508.329C202.182 508.896 197.863 511.042 194.657 514.321C194.346 514.631 194.356 515.133 194.666 515.444C194.977 515.745 195.488 515.745 195.79 515.426" fill="#2F36D4"/>
<path d="M196.238 505.9C195.653 503.078 193.644 500.648 190.977 499.552C190.575 499.388 190.11 499.58 189.945 499.991C189.781 500.392 189.973 500.858 190.384 501.023C192.53 501.899 194.22 503.936 194.685 506.219C194.768 506.648 195.188 506.922 195.617 506.84C196.046 506.749 196.329 506.329 196.238 505.9" fill="#2F36D4"/>
<path d="M412.114 604.124C411.667 598.398 410.571 592.617 408.479 587.201C406.433 581.758 403.411 576.68 399.319 572.269C395.218 567.903 389.939 564.241 383.82 561.821C377.719 559.373 370.861 558.131 363.773 558.405C370.276 555.592 377.619 554.067 385.218 554.14C392.816 554.185 400.707 555.902 408.123 559.382C411.804 561.126 415.356 563.291 418.69 565.775C422.042 568.259 425.092 571.127 427.941 574.196C433.65 580.342 438.243 587.438 441.961 594.982L442.381 595.841C446.281 603.759 443.02 613.339 435.102 617.239C427.192 621.139 417.612 617.878 413.712 609.96C412.79 608.097 412.269 606.079 412.114 604.124" fill="#2F36D4"/>
<path d="M439.878 597.375C445.878 582.753 456.18 570.963 468.445 563.382C480.72 555.82 494.712 552.66 507.699 553.701C495.114 557.071 484.328 564.36 477.076 573.474C469.806 582.589 465.925 593.621 465.623 603.896C465.404 611.394 459.139 617.294 451.641 617.075C444.143 616.856 438.243 610.6 438.471 603.101C438.517 601.43 438.864 599.841 439.458 598.389L439.878 597.375" fill="#2F36D4"/>
<path d="M422.689 602.609C428.124 586.553 428.781 568.187 424.626 550.515C420.479 532.842 411.547 515.727 398.058 502.183C397.757 501.882 397.757 501.379 398.058 501.078C398.332 500.813 398.743 500.777 399.053 500.987C407.072 506.448 414.36 513.179 420.662 520.869C426.964 528.55 432.279 537.18 436.435 546.46C440.581 555.729 443.567 565.666 445.175 575.968C446.773 586.27 446.992 596.965 445.567 607.659L445.531 607.942C444.673 614.39 438.745 618.92 432.297 618.062C425.84 617.203 421.31 611.276 422.169 604.828C422.269 604.079 422.461 603.303 422.689 602.609" fill="#2F36D4"/>
<path d="M425.154 598.873C427.939 587.302 432.698 576.58 438.908 567.109C445.128 557.647 452.827 549.409 461.558 542.843C479.029 529.719 500.135 523.572 519.999 524.513C500.656 529.143 484.006 540.477 473.303 554.871C462.571 569.246 457.576 586.845 458.535 602.809C459.11 612.216 451.95 620.299 442.543 620.874C433.136 621.44 425.054 614.28 424.478 604.873C424.378 603.175 424.524 601.512 424.898 599.932L425.154 598.873" fill="#575EFF"/>
<path d="M424.236 600.188C424.254 586.014 419.487 571.127 410.354 558.852C401.23 546.559 387.668 536.815 371.932 532.038C388.316 533.353 404.792 540.093 418.044 551.628C431.296 563.163 441.105 579.292 445.187 597.558L445.26 597.868C446.539 603.604 442.931 609.293 437.196 610.572C431.46 611.851 425.779 608.243 424.492 602.508C424.327 601.75 424.245 600.928 424.236 600.188Z" fill="#575EFF"/>
<path d="M48.7241 548.112C42.3767 543.372 33.9471 541.555 26.2115 543.254C21.7729 544.24 17.6631 546.286 13.3615 547.765C9.05993 549.245 4.329 550.149 0 548.752C7.2698 555.008 12.5394 563.227 18.969 570.351C25.3894 577.475 33.7187 583.795 43.3082 584.233C51.4365 584.607 58.396 578.178 58.8891 570.095C59.428 561.136 56.0396 553.574 48.7241 548.112" fill="#575EFF"/>
<path d="M69.4365 598.955C66.9889 586.416 60.0843 574.817 50.2481 566.67C40.4028 558.524 27.7081 553.921 14.9312 553.857C14.5841 553.857 14.3008 554.14 14.3008 554.487C14.3008 554.843 14.5841 555.126 14.9312 555.126C27.4067 555.181 39.8276 559.693 49.4354 567.648C59.0524 575.593 65.8015 586.955 68.1943 599.202C68.2673 599.54 68.5961 599.768 68.9431 599.695C69.281 599.631 69.5096 599.302 69.4365 598.955" fill="#2F36D4"/>
<path d="M106.237 555.848C104.31 568.25 94.5468 573.575 82.8293 573.2C73.7329 572.908 65.3397 567.903 67.8238 557.683C68.7645 553.838 70.9016 550.404 73.2305 547.208C82.8018 534.038 95.7981 523.837 108.612 513.818C104.885 519.891 104.712 527.462 105.342 534.559C105.981 541.655 107.324 548.806 106.237 555.848" fill="#575EFF"/>
<path d="M99.1756 523.992C86.1795 545.856 77.7957 570.451 74.7361 595.703C74.6996 596.041 74.9369 596.343 75.2748 596.379C75.6127 596.425 75.9141 596.187 75.9598 595.849C79.0011 570.77 87.3212 546.331 100.235 524.613C100.409 524.32 100.308 523.946 100.016 523.772C99.7235 523.599 99.3491 523.699 99.1756 523.992" fill="#2F36D4"/>
<path d="M479.043 634.546H51.558L44.8086 587.448H485.792L479.043 634.546Z" fill="#CFC6EB"/>
<path d="M491.44 643.761H39.1413L37.7168 625.322H492.865L491.44 643.761Z" fill="#BDB6D5"/>
<path d="M70.123 587.448C75.6028 580.662 84.6901 578.863 91.9051 578.004C99.1292 577.146 107.065 579.319 111.55 585.046C118.043 593.329 116.071 606.791 124.208 613.477C115.203 614.874 105.723 612.993 97.9417 608.253C90.1696 603.513 87.1374 596.206 84.2605 587.567L70.123 587.448" fill="#575EFF"/>
<path d="M75.8303 585.575C79.0359 583.822 82.7072 582.918 86.3695 582.918C88.6345 582.918 90.9087 583.265 93.064 583.968C98.699 585.804 103.521 590.051 106.042 595.412C106.982 597.403 108.143 599.878 109.576 602.143C111.01 604.398 112.709 606.462 114.8 607.604C115.111 607.768 115.494 607.659 115.659 607.348C115.823 607.038 115.713 606.654 115.403 606.49C113.631 605.54 112.015 603.64 110.645 601.467C109.275 599.293 108.124 596.864 107.193 594.873C104.508 589.192 99.4297 584.708 93.4568 582.763C91.1645 582.023 88.7624 581.648 86.3695 581.648C82.4972 581.648 78.6248 582.607 75.2274 584.461C74.9168 584.635 74.8072 585.018 74.9716 585.32C75.1451 585.63 75.5289 585.74 75.8303 585.575" fill="#2F36D4"/>
<path d="M83.8575 427.585L83.7205 427.667L83.8575 427.585ZM140.628 499.415C142.235 495.26 143.55 485.195 142.92 474.373C142.345 463.505 139.906 451.632 134.901 443.084C127.567 430.498 119.394 424.233 111.028 422.142C102.653 420.041 93.4746 422.014 83.8667 427.585L83.4465 427.822C76.5968 431.987 71.8933 439.138 70.2037 447.778C68.505 456.573 69.9844 466.829 75.6742 476.61C76.3227 477.716 77.0168 478.811 77.7566 479.907H77.7659L71.5098 484.227C70.6331 482.985 69.8294 481.734 69.0896 480.446C56.0113 457.87 61.6463 431.786 80.0309 421L80.2136 420.909C90.8534 414.744 102.087 412.041 112.873 414.753C123.723 417.457 133.522 425.521 141.477 439.257C147.404 449.477 149.879 462.299 150.528 473.971C151.131 485.689 149.971 496.036 147.77 502.082L140.628 499.415Z" fill="#695E8B"/>
<path d="M159.731 515.06L115.911 450.838C113.892 447.869 109.691 446.929 106.586 448.737L70.438 469.752C67.3511 471.56 66.0907 475.67 67.6707 478.894L80.1828 504.466L45.4046 499.215L40.9844 506.503L96.9235 538.724L101.828 548.743C103.399 551.967 107.234 553.117 110.34 551.327L157.758 523.728C160.872 521.928 161.749 518.029 159.731 515.06" fill="#695E8B"/>
<path d="M49.9922 488.63C53.3257 489.936 53.4536 497.607 50.2662 505.763C47.0788 513.919 41.791 519.481 38.4483 518.175C35.1148 516.869 34.9961 509.197 38.1743 501.05C41.3617 492.886 46.6495 487.324 49.9922 488.63Z" fill="#695E8B"/>
<path d="M131.65 414.305C123.75 413.255 114.919 413.182 108.772 418.26C107.247 419.52 105.904 421.146 105.53 423.091C105.146 425.037 105.968 427.302 107.776 428.124C108.854 428.617 110.114 428.544 111.247 428.918C113.156 429.548 114.416 431.338 115.412 433.083C116.407 434.827 117.348 436.718 119.019 437.85C120.681 438.973 123.339 438.928 124.344 437.183C124.517 439.969 127.038 442.152 129.741 442.846C132.435 443.549 135.285 443.092 138.034 442.636C144.683 441.522 151.341 440.417 157.999 439.302C161.624 438.7 165.825 437.658 167.259 434.279C173.196 420.306 138.472 415.21 131.65 414.305" fill="#FF7144"/>
<path d="M344.418 444.6C341.97 432.097 313.119 374.075 301.091 358.686C292.534 347.736 269.564 323.05 264.231 350.951C263.025 357.28 264.258 363.801 265.646 370.102C272.012 399.072 290.451 434.563 299.959 462.655H299.95C311.512 473.834 312.982 490.803 311.201 507.48C320.38 506.795 328.225 504.155 334.006 498.959C355.998 479.204 346.865 457.112 344.418 444.6Z" fill="#5B5B94"/>
<path d="M333.616 483.506C333.616 503.215 317.642 519.198 297.924 519.198C278.216 519.198 262.242 503.215 262.242 483.506C262.242 463.797 278.216 447.815 297.924 447.815C317.642 447.815 333.616 463.797 333.616 483.506Z" fill="#494977"/>
<path d="M285.85 457.97C243.939 443.997 195.617 427.575 154.017 419.374C147.733 422.333 153.578 433.95 157.999 439.302C157.999 439.302 253.255 498.584 293.824 506.767C303.514 508.722 312.382 500.21 311.605 490.355C311.596 490.246 311.587 490.145 311.578 490.036C310.336 475.195 299.979 462.682 285.85 457.97" fill="#FF7144"/>
<path d="M296.379 535.025C293.082 529.207 287.493 525.024 281.639 521.8C275.775 518.567 269.501 516.12 263.72 512.759C264.779 520.001 264.451 527.399 265.51 534.641C266.56 541.884 269.273 549.309 275.036 553.839C289.1 564.889 305.001 550.258 296.379 535.025" fill="#575EFF"/>
<path d="M322.087 538.705C325.768 532.997 331.786 529.253 337.814 526.129C343.842 523.006 350.18 520.248 355.313 515.8C353.998 521.873 354.482 528.175 354.381 534.395C354.29 540.614 353.523 547.099 350.098 552.295C347.239 556.633 342.591 559.757 337.486 560.761C323.174 563.565 314.059 551.172 322.087 538.705Z" fill="#575EFF"/>
<path d="M310.317 587.265C305.988 569.703 297.64 553.117 285.959 539.29L284.809 540.258C296.343 553.903 304.581 570.287 308.856 587.631L310.317 587.265" fill="#2F36D4"/>
<path d="M311.91 587.53C313.727 570.908 321.737 554.962 334.121 543.71L333.116 542.596C320.449 554.112 312.275 570.369 310.421 587.365L311.919 587.53" fill="#2F36D4"/>
<path d="M323.578 518.75C323.13 513.773 322.235 508.868 321.139 503.991C316.984 506.968 313.294 510.576 310.317 514.722C307.769 518.293 305.659 522.476 305.896 526.86C306.125 531.253 309.394 535.692 313.778 535.966C317.532 536.194 320.956 533.326 322.454 529.874C323.961 526.422 323.906 522.504 323.578 518.75" fill="#575EFF"/>
<path d="M277.418 561.264C269.336 560.524 261.235 562.013 253.253 563.501C262.605 570.735 272.496 577.511 283.629 581.493C290.077 583.804 301.639 582.16 298.707 572.497C296.452 565.045 283.976 561.867 277.418 561.264Z" fill="#575EFF"/>
<path d="M281.333 570.77C290.412 571.611 299.27 574.78 306.833 579.876C307.18 580.104 307.646 580.013 307.874 579.675C308.102 579.328 308.011 578.862 307.673 578.634C299.901 573.392 290.804 570.14 281.47 569.282C281.05 569.236 280.685 569.547 280.649 569.958C280.612 570.369 280.913 570.734 281.333 570.77Z" fill="#2F36D4"/>
<path d="M313.055 523.317C311.338 529.481 310.479 536.112 310.479 542.761C310.479 551.61 311.996 560.506 315.092 568.433C315.238 568.817 315.676 569.009 316.06 568.862C316.453 568.707 316.644 568.278 316.489 567.885C313.475 560.159 311.978 551.437 311.978 542.761C311.978 536.24 312.827 529.746 314.507 523.728C314.617 523.326 314.379 522.906 313.977 522.796C313.585 522.686 313.165 522.924 313.055 523.317" fill="#2F36D4"/>
<path d="M321.323 578.57C321.661 581.201 323.534 583.42 325.753 584.872C327.963 586.324 330.52 587.146 333.004 588.05C343.48 591.895 353.544 597.923 359.873 607.111C360.969 599.357 362.065 591.329 359.946 583.794C357.691 575.693 349.891 567.191 341.05 566.853C334.466 566.597 320.173 569.602 321.323 578.57Z" fill="#575EFF"/>
<path d="M314.657 575.712C316.018 573.684 317.661 572.378 319.597 571.538C321.534 570.707 323.771 570.342 326.283 570.296C326.411 570.287 326.539 570.287 326.657 570.287C331.479 570.287 336.238 572.15 340.284 574.926C344.448 577.776 347.937 581.548 351.188 585.502C351.453 585.822 351.928 585.877 352.248 585.612C352.567 585.347 352.613 584.872 352.348 584.553C349.06 580.552 345.48 576.662 341.133 573.684C336.895 570.789 331.872 568.789 326.657 568.789C326.529 568.789 326.393 568.789 326.256 568.789C323.616 568.844 321.177 569.218 319.004 570.159C316.821 571.1 314.921 572.616 313.415 574.872C313.177 575.219 313.268 575.684 313.615 575.913C313.962 576.141 314.428 576.05 314.657 575.712" fill="#2F36D4"/>
</svg>
